<mxfile host="app.diagrams.net" agent="Mozilla/5.0 (Windows NT 10.0; Win64; x64) AppleWebKit/537.36 (KHTML, like Gecko) Chrome/128.0.0.0 Safari/537.36" version="24.7.6" pages="3">
  <diagram name="UML - Casos de Uso" id="mm8csl_jOcRZYr-nb4BH">
    <mxGraphModel dx="989" dy="532" grid="1" gridSize="10" guides="1" tooltips="1" connect="1" arrows="1" fold="1" page="1" pageScale="1" pageWidth="827" pageHeight="1169" math="0" shadow="0">
      <root>
        <mxCell id="0" />
        <mxCell id="1" parent="0" />
        <mxCell id="AO2AxKqOb6xZKi05LvQu-4" style="rounded=0;orthogonalLoop=1;jettySize=auto;html=1;entryX=0;entryY=0.5;entryDx=0;entryDy=0;edgeStyle=orthogonalEdgeStyle;curved=1;endArrow=open;endFill=0;" parent="1" target="AO2AxKqOb6xZKi05LvQu-2" edge="1">
          <mxGeometry relative="1" as="geometry">
            <mxPoint x="300" y="186" as="sourcePoint" />
            <Array as="points">
              <mxPoint x="350" y="186" />
              <mxPoint x="350" y="125" />
            </Array>
          </mxGeometry>
        </mxCell>
        <mxCell id="AO2AxKqOb6xZKi05LvQu-8" style="rounded=0;orthogonalLoop=1;jettySize=auto;html=1;entryX=0;entryY=0.5;entryDx=0;entryDy=0;edgeStyle=orthogonalEdgeStyle;curved=1;endArrow=none;endFill=0;" parent="1" target="AO2AxKqOb6xZKi05LvQu-7" edge="1">
          <mxGeometry relative="1" as="geometry">
            <mxPoint x="300" y="190" as="sourcePoint" />
          </mxGeometry>
        </mxCell>
        <mxCell id="AO2AxKqOb6xZKi05LvQu-11" style="rounded=0;orthogonalLoop=1;jettySize=auto;html=1;entryX=0;entryY=0.5;entryDx=0;entryDy=0;edgeStyle=orthogonalEdgeStyle;curved=1;endArrow=open;endFill=0;" parent="1" target="AO2AxKqOb6xZKi05LvQu-10" edge="1">
          <mxGeometry relative="1" as="geometry">
            <mxPoint x="300" y="200" as="sourcePoint" />
          </mxGeometry>
        </mxCell>
        <mxCell id="AO2AxKqOb6xZKi05LvQu-13" style="rounded=0;orthogonalLoop=1;jettySize=auto;html=1;exitX=1;exitY=0.3333333333333333;exitDx=0;exitDy=0;exitPerimeter=0;entryX=0.006;entryY=0.404;entryDx=0;entryDy=0;edgeStyle=orthogonalEdgeStyle;curved=1;endArrow=open;endFill=0;entryPerimeter=0;" parent="1" source="AO2AxKqOb6xZKi05LvQu-1" target="AO2AxKqOb6xZKi05LvQu-12" edge="1">
          <mxGeometry relative="1" as="geometry">
            <Array as="points">
              <mxPoint x="320" y="200" />
              <mxPoint x="320" y="340" />
              <mxPoint x="331" y="340" />
            </Array>
          </mxGeometry>
        </mxCell>
        <mxCell id="AO2AxKqOb6xZKi05LvQu-15" style="rounded=0;orthogonalLoop=1;jettySize=auto;html=1;entryX=0;entryY=0.5;entryDx=0;entryDy=0;edgeStyle=orthogonalEdgeStyle;curved=1;endArrow=open;endFill=0;" parent="1" target="AO2AxKqOb6xZKi05LvQu-14" edge="1">
          <mxGeometry relative="1" as="geometry">
            <mxPoint x="300" y="180" as="sourcePoint" />
            <Array as="points">
              <mxPoint x="340" y="181" />
              <mxPoint x="340" y="65" />
            </Array>
          </mxGeometry>
        </mxCell>
        <mxCell id="AO2AxKqOb6xZKi05LvQu-17" style="rounded=0;orthogonalLoop=1;jettySize=auto;html=1;entryX=0;entryY=0.5;entryDx=0;entryDy=0;edgeStyle=orthogonalEdgeStyle;curved=1;endArrow=open;endFill=0;" parent="1" target="AO2AxKqOb6xZKi05LvQu-16" edge="1">
          <mxGeometry relative="1" as="geometry">
            <mxPoint x="300" y="240" as="sourcePoint" />
            <Array as="points">
              <mxPoint x="310" y="240" />
              <mxPoint x="310" y="435" />
            </Array>
          </mxGeometry>
        </mxCell>
        <mxCell id="AO2AxKqOb6xZKi05LvQu-1" value="UsuÃ¡rio" style="shape=umlActor;verticalLabelPosition=bottom;verticalAlign=top;html=1;outlineConnect=0;" parent="1" vertex="1">
          <mxGeometry x="260" y="180" width="30" height="60" as="geometry" />
        </mxCell>
        <mxCell id="WFNtDLJA3HC5hCtIoWEX-1" style="edgeStyle=orthogonalEdgeStyle;rounded=0;orthogonalLoop=1;jettySize=auto;html=1;entryX=0.5;entryY=0;entryDx=0;entryDy=0;endArrow=open;endFill=0;dashed=1;" edge="1" parent="1" source="AO2AxKqOb6xZKi05LvQu-2" target="AO2AxKqOb6xZKi05LvQu-7">
          <mxGeometry relative="1" as="geometry" />
        </mxCell>
        <mxCell id="WFNtDLJA3HC5hCtIoWEX-2" value="&amp;lt;&amp;lt;extend&amp;gt;&amp;gt;" style="edgeLabel;html=1;align=center;verticalAlign=middle;resizable=0;points=[];fontSize=8;" vertex="1" connectable="0" parent="WFNtDLJA3HC5hCtIoWEX-1">
          <mxGeometry x="-0.1269" y="1" relative="1" as="geometry">
            <mxPoint as="offset" />
          </mxGeometry>
        </mxCell>
        <mxCell id="AO2AxKqOb6xZKi05LvQu-2" value="Realizar Pedido" style="ellipse;whiteSpace=wrap;html=1;fontSize=10;" parent="1" vertex="1">
          <mxGeometry x="390" y="100" width="91.67" height="50" as="geometry" />
        </mxCell>
        <mxCell id="AO2AxKqOb6xZKi05LvQu-3" value="Restaurante" style="shape=umlActor;verticalLabelPosition=bottom;verticalAlign=top;html=1;outlineConnect=0;" parent="1" vertex="1">
          <mxGeometry x="570" y="180" width="30" height="60" as="geometry" />
        </mxCell>
        <mxCell id="AO2AxKqOb6xZKi05LvQu-5" style="rounded=0;orthogonalLoop=1;jettySize=auto;html=1;exitX=1;exitY=0.5;exitDx=0;exitDy=0;endArrow=none;endFill=0;edgeStyle=orthogonalEdgeStyle;curved=1;" parent="1" source="AO2AxKqOb6xZKi05LvQu-2" edge="1">
          <mxGeometry relative="1" as="geometry">
            <mxPoint x="560" y="190" as="targetPoint" />
            <Array as="points">
              <mxPoint x="540" y="125" />
              <mxPoint x="540" y="190" />
            </Array>
          </mxGeometry>
        </mxCell>
        <mxCell id="AO2AxKqOb6xZKi05LvQu-7" value="Cancelar Pedido" style="ellipse;whiteSpace=wrap;html=1;fontSize=10;" parent="1" vertex="1">
          <mxGeometry x="390" y="190" width="91.67" height="50" as="geometry" />
        </mxCell>
        <mxCell id="AO2AxKqOb6xZKi05LvQu-9" style="rounded=0;orthogonalLoop=1;jettySize=auto;html=1;exitX=1;exitY=0.5;exitDx=0;exitDy=0;endArrow=none;endFill=0;edgeStyle=orthogonalEdgeStyle;curved=1;" parent="1" source="AO2AxKqOb6xZKi05LvQu-7" edge="1">
          <mxGeometry relative="1" as="geometry">
            <mxPoint x="560" y="200" as="targetPoint" />
          </mxGeometry>
        </mxCell>
        <mxCell id="AO2AxKqOb6xZKi05LvQu-10" value="Login" style="ellipse;whiteSpace=wrap;html=1;fontSize=10;" parent="1" vertex="1">
          <mxGeometry x="390" y="250" width="91.67" height="50" as="geometry" />
        </mxCell>
        <mxCell id="WFNtDLJA3HC5hCtIoWEX-3" style="edgeStyle=orthogonalEdgeStyle;rounded=0;orthogonalLoop=1;jettySize=auto;html=1;entryX=0.5;entryY=0;entryDx=0;entryDy=0;endArrow=open;endFill=0;" edge="1" parent="1" source="AO2AxKqOb6xZKi05LvQu-12" target="AO2AxKqOb6xZKi05LvQu-16">
          <mxGeometry relative="1" as="geometry" />
        </mxCell>
        <mxCell id="WFNtDLJA3HC5hCtIoWEX-4" value="&amp;lt;&amp;lt;extend&amp;gt;&amp;gt;" style="edgeLabel;html=1;align=center;verticalAlign=middle;resizable=0;points=[];fontSize=8;" vertex="1" connectable="0" parent="WFNtDLJA3HC5hCtIoWEX-3">
          <mxGeometry x="-0.3954" y="-1" relative="1" as="geometry">
            <mxPoint as="offset" />
          </mxGeometry>
        </mxCell>
        <mxCell id="AO2AxKqOb6xZKi05LvQu-12" value="Cadastro" style="ellipse;whiteSpace=wrap;html=1;fontSize=10;" parent="1" vertex="1">
          <mxGeometry x="340" y="320" width="91.67" height="50" as="geometry" />
        </mxCell>
        <mxCell id="AO2AxKqOb6xZKi05LvQu-14" value="Realizar Pagamento" style="ellipse;whiteSpace=wrap;html=1;fontSize=10;" parent="1" vertex="1">
          <mxGeometry x="390" y="40" width="91.67" height="50" as="geometry" />
        </mxCell>
        <mxCell id="AO2AxKqOb6xZKi05LvQu-16" value="Buscar CEP" style="ellipse;whiteSpace=wrap;html=1;fontSize=10;" parent="1" vertex="1">
          <mxGeometry x="390" y="410" width="91.67" height="50" as="geometry" />
        </mxCell>
        <mxCell id="AO2AxKqOb6xZKi05LvQu-18" style="rounded=0;orthogonalLoop=1;jettySize=auto;html=1;exitX=1;exitY=0.5;exitDx=0;exitDy=0;endArrow=none;endFill=0;edgeStyle=orthogonalEdgeStyle;curved=1;" parent="1" source="AO2AxKqOb6xZKi05LvQu-16" edge="1">
          <mxGeometry relative="1" as="geometry">
            <mxPoint x="560" y="210" as="targetPoint" />
            <Array as="points">
              <mxPoint x="540" y="425" />
              <mxPoint x="540" y="210" />
            </Array>
          </mxGeometry>
        </mxCell>
        <mxCell id="WFNtDLJA3HC5hCtIoWEX-5" style="edgeStyle=orthogonalEdgeStyle;rounded=0;orthogonalLoop=1;jettySize=auto;html=1;entryX=0.55;entryY=1.02;entryDx=0;entryDy=0;entryPerimeter=0;exitX=1;exitY=0.5;exitDx=0;exitDy=0;endArrow=open;endFill=0;" edge="1" parent="1" source="AO2AxKqOb6xZKi05LvQu-12" target="AO2AxKqOb6xZKi05LvQu-10">
          <mxGeometry relative="1" as="geometry">
            <Array as="points">
              <mxPoint x="440" y="345" />
              <mxPoint x="440" y="310" />
              <mxPoint x="440" y="310" />
            </Array>
          </mxGeometry>
        </mxCell>
        <mxCell id="WFNtDLJA3HC5hCtIoWEX-6" value="&amp;lt;&amp;lt;include&amp;gt;&amp;gt;" style="edgeLabel;html=1;align=center;verticalAlign=middle;resizable=0;points=[];fontSize=8;" vertex="1" connectable="0" parent="WFNtDLJA3HC5hCtIoWEX-5">
          <mxGeometry x="0.1398" relative="1" as="geometry">
            <mxPoint y="-3" as="offset" />
          </mxGeometry>
        </mxCell>
      </root>
    </mxGraphModel>
  </diagram>
  <diagram id="N0kGdqxevs9-UsoWOtHk" name="UML - Classe">
    <mxGraphModel dx="1500" dy="796" grid="1" gridSize="10" guides="1" tooltips="1" connect="1" arrows="1" fold="1" page="0" pageScale="1" pageWidth="827" pageHeight="1169" math="0" shadow="0">
      <root>
        <mxCell id="0" />
        <mxCell id="1" parent="0" />
        <mxCell id="QP5b6zn-IpImXBu_HWyj-1" value="Order" style="swimlane;fontStyle=1;align=center;verticalAlign=top;childLayout=stackLayout;horizontal=1;startSize=26;horizontalStack=0;resizeParent=1;resizeParentMax=0;resizeLast=0;collapsible=1;marginBottom=0;whiteSpace=wrap;html=1;rounded=1;" vertex="1" parent="1">
          <mxGeometry x="470" y="600" width="160" height="196" as="geometry" />
        </mxCell>
        <mxCell id="QP5b6zn-IpImXBu_HWyj-2" value="-codeNumber" style="text;strokeColor=none;fillColor=none;align=left;verticalAlign=top;spacingLeft=4;spacingRight=4;overflow=hidden;rotatable=0;points=[[0,0.5],[1,0.5]];portConstraint=eastwest;whiteSpace=wrap;html=1;rounded=1;" vertex="1" parent="QP5b6zn-IpImXBu_HWyj-1">
          <mxGeometry y="26" width="160" height="26" as="geometry" />
        </mxCell>
        <mxCell id="QP5b6zn-IpImXBu_HWyj-5" value="-date" style="text;strokeColor=none;fillColor=none;align=left;verticalAlign=top;spacingLeft=4;spacingRight=4;overflow=hidden;rotatable=0;points=[[0,0.5],[1,0.5]];portConstraint=eastwest;whiteSpace=wrap;html=1;rounded=1;" vertex="1" parent="QP5b6zn-IpImXBu_HWyj-1">
          <mxGeometry y="52" width="160" height="26" as="geometry" />
        </mxCell>
        <mxCell id="QP5b6zn-IpImXBu_HWyj-26" value="-status" style="text;strokeColor=none;fillColor=none;align=left;verticalAlign=top;spacingLeft=4;spacingRight=4;overflow=hidden;rotatable=0;points=[[0,0.5],[1,0.5]];portConstraint=eastwest;whiteSpace=wrap;html=1;rounded=1;" vertex="1" parent="QP5b6zn-IpImXBu_HWyj-1">
          <mxGeometry y="78" width="160" height="26" as="geometry" />
        </mxCell>
        <mxCell id="QP5b6zn-IpImXBu_HWyj-3" value="" style="line;strokeWidth=1;fillColor=none;align=left;verticalAlign=middle;spacingTop=-1;spacingLeft=3;spacingRight=3;rotatable=0;labelPosition=right;points=[];portConstraint=eastwest;strokeColor=inherit;rounded=1;" vertex="1" parent="QP5b6zn-IpImXBu_HWyj-1">
          <mxGeometry y="104" width="160" height="8" as="geometry" />
        </mxCell>
        <mxCell id="QP5b6zn-IpImXBu_HWyj-4" value="+ Register()" style="text;strokeColor=none;fillColor=none;align=left;verticalAlign=top;spacingLeft=4;spacingRight=4;overflow=hidden;rotatable=0;points=[[0,0.5],[1,0.5]];portConstraint=eastwest;whiteSpace=wrap;html=1;rounded=1;" vertex="1" parent="QP5b6zn-IpImXBu_HWyj-1">
          <mxGeometry y="112" width="160" height="24" as="geometry" />
        </mxCell>
        <mxCell id="QP5b6zn-IpImXBu_HWyj-7" value="+ Cancel()" style="text;strokeColor=none;fillColor=none;align=left;verticalAlign=top;spacingLeft=4;spacingRight=4;overflow=hidden;rotatable=0;points=[[0,0.5],[1,0.5]];portConstraint=eastwest;whiteSpace=wrap;html=1;rounded=1;" vertex="1" parent="QP5b6zn-IpImXBu_HWyj-1">
          <mxGeometry y="136" width="160" height="30" as="geometry" />
        </mxCell>
        <mxCell id="QP5b6zn-IpImXBu_HWyj-27" value="+ Status()" style="text;strokeColor=none;fillColor=none;align=left;verticalAlign=top;spacingLeft=4;spacingRight=4;overflow=hidden;rotatable=0;points=[[0,0.5],[1,0.5]];portConstraint=eastwest;whiteSpace=wrap;html=1;rounded=1;" vertex="1" parent="QP5b6zn-IpImXBu_HWyj-1">
          <mxGeometry y="166" width="160" height="30" as="geometry" />
        </mxCell>
        <mxCell id="QP5b6zn-IpImXBu_HWyj-8" value="User" style="swimlane;fontStyle=1;align=center;verticalAlign=top;childLayout=stackLayout;horizontal=1;startSize=26;horizontalStack=0;resizeParent=1;resizeParentMax=0;resizeLast=0;collapsible=1;marginBottom=0;whiteSpace=wrap;html=1;rounded=1;" vertex="1" parent="1">
          <mxGeometry x="460" y="376" width="160" height="138" as="geometry" />
        </mxCell>
        <mxCell id="QP5b6zn-IpImXBu_HWyj-9" value="-email" style="text;strokeColor=none;fillColor=none;align=left;verticalAlign=top;spacingLeft=4;spacingRight=4;overflow=hidden;rotatable=0;points=[[0,0.5],[1,0.5]];portConstraint=eastwest;whiteSpace=wrap;html=1;rounded=1;" vertex="1" parent="QP5b6zn-IpImXBu_HWyj-8">
          <mxGeometry y="26" width="160" height="26" as="geometry" />
        </mxCell>
        <mxCell id="QP5b6zn-IpImXBu_HWyj-12" value="-password" style="text;strokeColor=none;fillColor=none;align=left;verticalAlign=top;spacingLeft=4;spacingRight=4;overflow=hidden;rotatable=0;points=[[0,0.5],[1,0.5]];portConstraint=eastwest;whiteSpace=wrap;html=1;rounded=1;" vertex="1" parent="QP5b6zn-IpImXBu_HWyj-8">
          <mxGeometry y="52" width="160" height="26" as="geometry" />
        </mxCell>
        <mxCell id="QP5b6zn-IpImXBu_HWyj-10" value="" style="line;strokeWidth=1;fillColor=none;align=left;verticalAlign=middle;spacingTop=-1;spacingLeft=3;spacingRight=3;rotatable=0;labelPosition=right;points=[];portConstraint=eastwest;strokeColor=inherit;rounded=1;" vertex="1" parent="QP5b6zn-IpImXBu_HWyj-8">
          <mxGeometry y="78" width="160" height="8" as="geometry" />
        </mxCell>
        <mxCell id="QP5b6zn-IpImXBu_HWyj-11" value="+ AddUser()" style="text;strokeColor=none;fillColor=none;align=left;verticalAlign=top;spacingLeft=4;spacingRight=4;overflow=hidden;rotatable=0;points=[[0,0.5],[1,0.5]];portConstraint=eastwest;whiteSpace=wrap;html=1;rounded=1;" vertex="1" parent="QP5b6zn-IpImXBu_HWyj-8">
          <mxGeometry y="86" width="160" height="26" as="geometry" />
        </mxCell>
        <mxCell id="QP5b6zn-IpImXBu_HWyj-23" value="+ RemoveUser()" style="text;strokeColor=none;fillColor=none;align=left;verticalAlign=top;spacingLeft=4;spacingRight=4;overflow=hidden;rotatable=0;points=[[0,0.5],[1,0.5]];portConstraint=eastwest;whiteSpace=wrap;html=1;rounded=1;" vertex="1" parent="QP5b6zn-IpImXBu_HWyj-8">
          <mxGeometry y="112" width="160" height="26" as="geometry" />
        </mxCell>
        <mxCell id="QP5b6zn-IpImXBu_HWyj-13" style="edgeStyle=orthogonalEdgeStyle;rounded=1;orthogonalLoop=1;jettySize=auto;html=1;entryX=0;entryY=0.5;entryDx=0;entryDy=0;endArrow=none;endFill=0;exitX=0.507;exitY=1.02;exitDx=0;exitDy=0;exitPerimeter=0;" edge="1" parent="1" source="RQ-brLiYPZyt5B6VpKAW-10" target="QP5b6zn-IpImXBu_HWyj-26">
          <mxGeometry relative="1" as="geometry">
            <mxPoint x="240" y="710" as="sourcePoint" />
            <Array as="points">
              <mxPoint x="351" y="691" />
            </Array>
          </mxGeometry>
        </mxCell>
        <mxCell id="QP5b6zn-IpImXBu_HWyj-14" value="*" style="text;html=1;align=center;verticalAlign=middle;resizable=0;points=[];autosize=1;strokeColor=none;fillColor=none;rounded=1;" vertex="1" parent="1">
          <mxGeometry x="446" y="669" width="30" height="30" as="geometry" />
        </mxCell>
        <mxCell id="QP5b6zn-IpImXBu_HWyj-15" value="1" style="text;html=1;align=center;verticalAlign=middle;resizable=0;points=[];autosize=1;strokeColor=none;fillColor=none;rounded=1;" vertex="1" parent="1">
          <mxGeometry x="330" y="644" width="30" height="30" as="geometry" />
        </mxCell>
        <mxCell id="QP5b6zn-IpImXBu_HWyj-16" value="Payment" style="swimlane;fontStyle=1;align=center;verticalAlign=top;childLayout=stackLayout;horizontal=1;startSize=26;horizontalStack=0;resizeParent=1;resizeParentMax=0;resizeLast=0;collapsible=1;marginBottom=0;whiteSpace=wrap;html=1;rounded=1;" vertex="1" parent="1">
          <mxGeometry x="719" y="600" width="160" height="164" as="geometry" />
        </mxCell>
        <mxCell id="QP5b6zn-IpImXBu_HWyj-17" value="-purchaseDate" style="text;strokeColor=none;fillColor=none;align=left;verticalAlign=top;spacingLeft=4;spacingRight=4;overflow=hidden;rotatable=0;points=[[0,0.5],[1,0.5]];portConstraint=eastwest;whiteSpace=wrap;html=1;rounded=1;" vertex="1" parent="QP5b6zn-IpImXBu_HWyj-16">
          <mxGeometry y="26" width="160" height="26" as="geometry" />
        </mxCell>
        <mxCell id="QP5b6zn-IpImXBu_HWyj-22" value="-value" style="text;strokeColor=none;fillColor=none;align=left;verticalAlign=top;spacingLeft=4;spacingRight=4;overflow=hidden;rotatable=0;points=[[0,0.5],[1,0.5]];portConstraint=eastwest;whiteSpace=wrap;html=1;rounded=1;" vertex="1" parent="QP5b6zn-IpImXBu_HWyj-16">
          <mxGeometry y="52" width="160" height="26" as="geometry" />
        </mxCell>
        <mxCell id="QP5b6zn-IpImXBu_HWyj-21" value="-status" style="text;strokeColor=none;fillColor=none;align=left;verticalAlign=top;spacingLeft=4;spacingRight=4;overflow=hidden;rotatable=0;points=[[0,0.5],[1,0.5]];portConstraint=eastwest;whiteSpace=wrap;html=1;rounded=1;" vertex="1" parent="QP5b6zn-IpImXBu_HWyj-16">
          <mxGeometry y="78" width="160" height="26" as="geometry" />
        </mxCell>
        <mxCell id="QP5b6zn-IpImXBu_HWyj-18" value="" style="line;strokeWidth=1;fillColor=none;align=left;verticalAlign=middle;spacingTop=-1;spacingLeft=3;spacingRight=3;rotatable=0;labelPosition=right;points=[];portConstraint=eastwest;strokeColor=inherit;rounded=1;" vertex="1" parent="QP5b6zn-IpImXBu_HWyj-16">
          <mxGeometry y="104" width="160" height="8" as="geometry" />
        </mxCell>
        <mxCell id="QP5b6zn-IpImXBu_HWyj-19" value="+ RegisterNew()" style="text;strokeColor=none;fillColor=none;align=left;verticalAlign=top;spacingLeft=4;spacingRight=4;overflow=hidden;rotatable=0;points=[[0,0.5],[1,0.5]];portConstraint=eastwest;whiteSpace=wrap;html=1;rounded=1;" vertex="1" parent="QP5b6zn-IpImXBu_HWyj-16">
          <mxGeometry y="112" width="160" height="26" as="geometry" />
        </mxCell>
        <mxCell id="QP5b6zn-IpImXBu_HWyj-24" value="+ ChangeStatus()" style="text;strokeColor=none;fillColor=none;align=left;verticalAlign=top;spacingLeft=4;spacingRight=4;overflow=hidden;rotatable=0;points=[[0,0.5],[1,0.5]];portConstraint=eastwest;whiteSpace=wrap;html=1;rounded=1;" vertex="1" parent="QP5b6zn-IpImXBu_HWyj-16">
          <mxGeometry y="138" width="160" height="26" as="geometry" />
        </mxCell>
        <mxCell id="QP5b6zn-IpImXBu_HWyj-28" value="Client" style="swimlane;fontStyle=1;align=center;verticalAlign=top;childLayout=stackLayout;horizontal=1;startSize=26;horizontalStack=0;resizeParent=1;resizeParentMax=0;resizeLast=0;collapsible=1;marginBottom=0;whiteSpace=wrap;html=1;rounded=1;" vertex="1" parent="1">
          <mxGeometry x="270" y="514" width="160" height="138" as="geometry" />
        </mxCell>
        <mxCell id="QP5b6zn-IpImXBu_HWyj-29" value="-cep" style="text;strokeColor=none;fillColor=none;align=left;verticalAlign=top;spacingLeft=4;spacingRight=4;overflow=hidden;rotatable=0;points=[[0,0.5],[1,0.5]];portConstraint=eastwest;whiteSpace=wrap;html=1;rounded=1;" vertex="1" parent="QP5b6zn-IpImXBu_HWyj-28">
          <mxGeometry y="26" width="160" height="26" as="geometry" />
        </mxCell>
        <mxCell id="QP5b6zn-IpImXBu_HWyj-31" value="" style="line;strokeWidth=1;fillColor=none;align=left;verticalAlign=middle;spacingTop=-1;spacingLeft=3;spacingRight=3;rotatable=0;labelPosition=right;points=[];portConstraint=eastwest;strokeColor=inherit;rounded=1;" vertex="1" parent="QP5b6zn-IpImXBu_HWyj-28">
          <mxGeometry y="52" width="160" height="8" as="geometry" />
        </mxCell>
        <mxCell id="QP5b6zn-IpImXBu_HWyj-33" value="+ RemoveClient()" style="text;strokeColor=none;fillColor=none;align=left;verticalAlign=top;spacingLeft=4;spacingRight=4;overflow=hidden;rotatable=0;points=[[0,0.5],[1,0.5]];portConstraint=eastwest;whiteSpace=wrap;html=1;rounded=1;" vertex="1" parent="QP5b6zn-IpImXBu_HWyj-28">
          <mxGeometry y="60" width="160" height="26" as="geometry" />
        </mxCell>
        <mxCell id="RQ-brLiYPZyt5B6VpKAW-9" value="+Login()" style="text;strokeColor=none;fillColor=none;align=left;verticalAlign=top;spacingLeft=4;spacingRight=4;overflow=hidden;rotatable=0;points=[[0,0.5],[1,0.5]];portConstraint=eastwest;whiteSpace=wrap;html=1;rounded=1;" vertex="1" parent="QP5b6zn-IpImXBu_HWyj-28">
          <mxGeometry y="86" width="160" height="26" as="geometry" />
        </mxCell>
        <mxCell id="RQ-brLiYPZyt5B6VpKAW-10" value="+Register()" style="text;strokeColor=none;fillColor=none;align=left;verticalAlign=top;spacingLeft=4;spacingRight=4;overflow=hidden;rotatable=0;points=[[0,0.5],[1,0.5]];portConstraint=eastwest;whiteSpace=wrap;html=1;rounded=1;" vertex="1" parent="QP5b6zn-IpImXBu_HWyj-28">
          <mxGeometry y="112" width="160" height="26" as="geometry" />
        </mxCell>
        <mxCell id="QP5b6zn-IpImXBu_HWyj-34" style="edgeStyle=orthogonalEdgeStyle;rounded=1;orthogonalLoop=1;jettySize=auto;html=1;entryX=0;entryY=0.75;entryDx=0;entryDy=0;entryPerimeter=0;exitX=0.5;exitY=0;exitDx=0;exitDy=0;endArrow=none;endFill=0;" edge="1" parent="1" source="QP5b6zn-IpImXBu_HWyj-28" target="QP5b6zn-IpImXBu_HWyj-10">
          <mxGeometry relative="1" as="geometry" />
        </mxCell>
        <mxCell id="QP5b6zn-IpImXBu_HWyj-36" value="1" style="text;html=1;align=center;verticalAlign=middle;resizable=0;points=[];autosize=1;strokeColor=none;fillColor=none;rounded=1;" vertex="1" parent="1">
          <mxGeometry x="431" y="434" width="30" height="30" as="geometry" />
        </mxCell>
        <mxCell id="QP5b6zn-IpImXBu_HWyj-37" value="1" style="text;html=1;align=center;verticalAlign=middle;resizable=0;points=[];autosize=1;strokeColor=none;fillColor=none;rounded=1;" vertex="1" parent="1">
          <mxGeometry x="345" y="490" width="30" height="30" as="geometry" />
        </mxCell>
        <mxCell id="QP5b6zn-IpImXBu_HWyj-38" value="EstablishmentAdmin" style="swimlane;fontStyle=1;align=center;verticalAlign=top;childLayout=stackLayout;horizontal=1;startSize=26;horizontalStack=0;resizeParent=1;resizeParentMax=0;resizeLast=0;collapsible=1;marginBottom=0;whiteSpace=wrap;html=1;rounded=1;" vertex="1" parent="1">
          <mxGeometry x="271" y="280" width="160" height="86" as="geometry" />
        </mxCell>
        <mxCell id="QP5b6zn-IpImXBu_HWyj-39" value="-cpf" style="text;strokeColor=none;fillColor=none;align=left;verticalAlign=top;spacingLeft=4;spacingRight=4;overflow=hidden;rotatable=0;points=[[0,0.5],[1,0.5]];portConstraint=eastwest;whiteSpace=wrap;html=1;rounded=1;" vertex="1" parent="QP5b6zn-IpImXBu_HWyj-38">
          <mxGeometry y="26" width="160" height="26" as="geometry" />
        </mxCell>
        <mxCell id="QP5b6zn-IpImXBu_HWyj-40" value="" style="line;strokeWidth=1;fillColor=none;align=left;verticalAlign=middle;spacingTop=-1;spacingLeft=3;spacingRight=3;rotatable=0;labelPosition=right;points=[];portConstraint=eastwest;strokeColor=inherit;rounded=1;" vertex="1" parent="QP5b6zn-IpImXBu_HWyj-38">
          <mxGeometry y="52" width="160" height="8" as="geometry" />
        </mxCell>
        <mxCell id="QP5b6zn-IpImXBu_HWyj-41" value="+&amp;nbsp;" style="text;strokeColor=none;fillColor=none;align=left;verticalAlign=top;spacingLeft=4;spacingRight=4;overflow=hidden;rotatable=0;points=[[0,0.5],[1,0.5]];portConstraint=eastwest;whiteSpace=wrap;html=1;rounded=1;" vertex="1" parent="QP5b6zn-IpImXBu_HWyj-38">
          <mxGeometry y="60" width="160" height="26" as="geometry" />
        </mxCell>
        <mxCell id="RQ-brLiYPZyt5B6VpKAW-1" style="edgeStyle=orthogonalEdgeStyle;rounded=1;orthogonalLoop=1;jettySize=auto;html=1;entryX=0.5;entryY=0;entryDx=0;entryDy=0;endArrow=none;endFill=0;" edge="1" parent="1" source="QP5b6zn-IpImXBu_HWyj-42" target="QP5b6zn-IpImXBu_HWyj-16">
          <mxGeometry relative="1" as="geometry" />
        </mxCell>
        <mxCell id="QP5b6zn-IpImXBu_HWyj-42" value="Establishment" style="swimlane;fontStyle=1;align=center;verticalAlign=top;childLayout=stackLayout;horizontal=1;startSize=26;horizontalStack=0;resizeParent=1;resizeParentMax=0;resizeLast=0;collapsible=1;marginBottom=0;whiteSpace=wrap;html=1;rounded=1;" vertex="1" parent="1">
          <mxGeometry x="460" y="80" width="160" height="138" as="geometry" />
        </mxCell>
        <mxCell id="QP5b6zn-IpImXBu_HWyj-43" value="-name" style="text;strokeColor=none;fillColor=none;align=left;verticalAlign=top;spacingLeft=4;spacingRight=4;overflow=hidden;rotatable=0;points=[[0,0.5],[1,0.5]];portConstraint=eastwest;whiteSpace=wrap;html=1;rounded=1;" vertex="1" parent="QP5b6zn-IpImXBu_HWyj-42">
          <mxGeometry y="26" width="160" height="26" as="geometry" />
        </mxCell>
        <mxCell id="QP5b6zn-IpImXBu_HWyj-56" value="-cnpj" style="text;strokeColor=none;fillColor=none;align=left;verticalAlign=top;spacingLeft=4;spacingRight=4;overflow=hidden;rotatable=0;points=[[0,0.5],[1,0.5]];portConstraint=eastwest;whiteSpace=wrap;html=1;rounded=1;" vertex="1" parent="QP5b6zn-IpImXBu_HWyj-42">
          <mxGeometry y="52" width="160" height="26" as="geometry" />
        </mxCell>
        <mxCell id="LdBjne6EEf0XuPKRY0sx-2" value="-cep" style="text;strokeColor=none;fillColor=none;align=left;verticalAlign=top;spacingLeft=4;spacingRight=4;overflow=hidden;rotatable=0;points=[[0,0.5],[1,0.5]];portConstraint=eastwest;whiteSpace=wrap;html=1;rounded=1;" vertex="1" parent="QP5b6zn-IpImXBu_HWyj-42">
          <mxGeometry y="78" width="160" height="26" as="geometry" />
        </mxCell>
        <mxCell id="QP5b6zn-IpImXBu_HWyj-44" value="" style="line;strokeWidth=1;fillColor=none;align=left;verticalAlign=middle;spacingTop=-1;spacingLeft=3;spacingRight=3;rotatable=0;labelPosition=right;points=[];portConstraint=eastwest;strokeColor=inherit;rounded=1;" vertex="1" parent="QP5b6zn-IpImXBu_HWyj-42">
          <mxGeometry y="104" width="160" height="8" as="geometry" />
        </mxCell>
        <mxCell id="QP5b6zn-IpImXBu_HWyj-45" value="+&amp;nbsp;" style="text;strokeColor=none;fillColor=none;align=left;verticalAlign=top;spacingLeft=4;spacingRight=4;overflow=hidden;rotatable=0;points=[[0,0.5],[1,0.5]];portConstraint=eastwest;whiteSpace=wrap;html=1;rounded=1;" vertex="1" parent="QP5b6zn-IpImXBu_HWyj-42">
          <mxGeometry y="112" width="160" height="26" as="geometry" />
        </mxCell>
        <mxCell id="QP5b6zn-IpImXBu_HWyj-49" style="edgeStyle=orthogonalEdgeStyle;rounded=1;orthogonalLoop=1;jettySize=auto;html=1;entryX=0;entryY=0.25;entryDx=0;entryDy=0;exitX=0.49;exitY=0.977;exitDx=0;exitDy=0;exitPerimeter=0;endArrow=none;endFill=0;" edge="1" parent="1" source="QP5b6zn-IpImXBu_HWyj-41" target="QP5b6zn-IpImXBu_HWyj-8">
          <mxGeometry relative="1" as="geometry" />
        </mxCell>
        <mxCell id="QP5b6zn-IpImXBu_HWyj-50" value="1" style="text;html=1;align=center;verticalAlign=middle;resizable=0;points=[];autosize=1;strokeColor=none;fillColor=none;rounded=1;" vertex="1" parent="1">
          <mxGeometry x="435" y="388" width="30" height="30" as="geometry" />
        </mxCell>
        <mxCell id="QP5b6zn-IpImXBu_HWyj-51" value="1" style="text;html=1;align=center;verticalAlign=middle;resizable=0;points=[];autosize=1;strokeColor=none;fillColor=none;rounded=1;" vertex="1" parent="1">
          <mxGeometry x="342" y="360" width="30" height="30" as="geometry" />
        </mxCell>
        <mxCell id="QP5b6zn-IpImXBu_HWyj-53" style="edgeStyle=orthogonalEdgeStyle;rounded=1;orthogonalLoop=1;jettySize=auto;html=1;entryX=0;entryY=0.5;entryDx=0;entryDy=0;exitX=0.5;exitY=0;exitDx=0;exitDy=0;endArrow=none;endFill=0;" edge="1" parent="1" source="QP5b6zn-IpImXBu_HWyj-38" target="QP5b6zn-IpImXBu_HWyj-56">
          <mxGeometry relative="1" as="geometry">
            <mxPoint x="430" y="319" as="sourcePoint" />
            <mxPoint x="529.72" y="208.522" as="targetPoint" />
            <Array as="points">
              <mxPoint x="350" y="280" />
              <mxPoint x="350" y="145" />
            </Array>
          </mxGeometry>
        </mxCell>
        <mxCell id="QP5b6zn-IpImXBu_HWyj-54" value="1" style="text;html=1;align=center;verticalAlign=middle;resizable=0;points=[];autosize=1;strokeColor=none;fillColor=none;rounded=1;" vertex="1" parent="1">
          <mxGeometry x="343" y="256" width="30" height="30" as="geometry" />
        </mxCell>
        <mxCell id="QP5b6zn-IpImXBu_HWyj-55" value="N" style="text;html=1;align=center;verticalAlign=middle;resizable=0;points=[];autosize=1;strokeColor=none;fillColor=none;rounded=1;" vertex="1" parent="1">
          <mxGeometry x="435" y="122" width="30" height="30" as="geometry" />
        </mxCell>
        <mxCell id="QP5b6zn-IpImXBu_HWyj-59" style="edgeStyle=orthogonalEdgeStyle;rounded=1;orthogonalLoop=1;jettySize=auto;html=1;endArrow=none;endFill=0;" edge="1" parent="1" source="QP5b6zn-IpImXBu_HWyj-1">
          <mxGeometry relative="1" as="geometry">
            <mxPoint x="720" y="650" as="targetPoint" />
            <Array as="points">
              <mxPoint x="675" y="698" />
              <mxPoint x="675" y="650" />
              <mxPoint x="720" y="650" />
            </Array>
          </mxGeometry>
        </mxCell>
        <mxCell id="QP5b6zn-IpImXBu_HWyj-60" value="1" style="text;html=1;align=center;verticalAlign=middle;resizable=0;points=[];autosize=1;strokeColor=none;fillColor=none;rounded=1;" vertex="1" parent="1">
          <mxGeometry x="620" y="674" width="30" height="30" as="geometry" />
        </mxCell>
        <mxCell id="QP5b6zn-IpImXBu_HWyj-61" value="1" style="text;html=1;align=center;verticalAlign=middle;resizable=0;points=[];autosize=1;strokeColor=none;fillColor=none;rounded=1;" vertex="1" parent="1">
          <mxGeometry x="695" y="627" width="30" height="30" as="geometry" />
        </mxCell>
        <mxCell id="RQ-brLiYPZyt5B6VpKAW-3" value="N" style="text;html=1;align=center;verticalAlign=middle;resizable=0;points=[];autosize=1;strokeColor=none;fillColor=none;rounded=1;" vertex="1" parent="1">
          <mxGeometry x="795" y="572" width="30" height="30" as="geometry" />
        </mxCell>
        <mxCell id="RQ-brLiYPZyt5B6VpKAW-4" value="1" style="text;html=1;align=center;verticalAlign=middle;resizable=0;points=[];autosize=1;strokeColor=none;fillColor=none;rounded=1;" vertex="1" parent="1">
          <mxGeometry x="614" y="128" width="30" height="30" as="geometry" />
        </mxCell>
      </root>
    </mxGraphModel>
  </diagram>
  <diagram id="F_WSPb0hM7KOEPY-JOml" name="Diagramas">
    <mxGraphModel dx="2607" dy="1404" grid="1" gridSize="10" guides="1" tooltips="1" connect="1" arrows="1" fold="1" page="0" pageScale="1" pageWidth="827" pageHeight="1169" math="0" shadow="0">
      <root>
        <mxCell id="0" />
        <mxCell id="1" parent="0" />
        <mxCell id="GDoj00g1DGCXsHXV1KNp-1" value="MER (Modelo Entidade Relacionamento)" style="text;html=1;align=center;verticalAlign=middle;resizable=0;points=[];autosize=1;strokeColor=none;fillColor=none;fontSize=20;fontStyle=1" vertex="1" parent="1">
          <mxGeometry x="333" y="180" width="390" height="40" as="geometry" />
        </mxCell>
        <mxCell id="Do9o0LYqxAp4ncPCpIDP-3" style="edgeStyle=orthogonalEdgeStyle;rounded=0;orthogonalLoop=1;jettySize=auto;html=1;entryX=0.5;entryY=0;entryDx=0;entryDy=0;endArrow=none;endFill=0;" edge="1" parent="1" source="ZmOcPCDy8d1Q8E4F5KBO-1" target="Do9o0LYqxAp4ncPCpIDP-2">
          <mxGeometry relative="1" as="geometry">
            <Array as="points">
              <mxPoint x="377" y="330" />
              <mxPoint x="307" y="330" />
            </Array>
          </mxGeometry>
        </mxCell>
        <mxCell id="Do9o0LYqxAp4ncPCpIDP-6" style="edgeStyle=orthogonalEdgeStyle;rounded=0;orthogonalLoop=1;jettySize=auto;html=1;entryX=0.5;entryY=0;entryDx=0;entryDy=0;endArrow=none;endFill=0;" edge="1" parent="1" source="ZmOcPCDy8d1Q8E4F5KBO-1" target="Do9o0LYqxAp4ncPCpIDP-5">
          <mxGeometry relative="1" as="geometry">
            <Array as="points">
              <mxPoint x="407" y="330" />
              <mxPoint x="471" y="330" />
            </Array>
          </mxGeometry>
        </mxCell>
        <mxCell id="ZmOcPCDy8d1Q8E4F5KBO-1" value="User" style="rounded=1;whiteSpace=wrap;html=1;" vertex="1" parent="1">
          <mxGeometry x="351" y="270" width="80" height="40" as="geometry" />
        </mxCell>
        <mxCell id="h_1FOw3z8PVATZ-N6gUg-1" value="EstablishmentAdmin" style="rounded=1;whiteSpace=wrap;html=1;" vertex="1" parent="1">
          <mxGeometry x="244" y="460" width="126" height="40" as="geometry" />
        </mxCell>
        <mxCell id="Do9o0LYqxAp4ncPCpIDP-22" style="edgeStyle=orthogonalEdgeStyle;rounded=0;orthogonalLoop=1;jettySize=auto;html=1;entryX=0.5;entryY=0;entryDx=0;entryDy=0;endArrow=none;endFill=0;" edge="1" parent="1" source="h_1FOw3z8PVATZ-N6gUg-2" target="Do9o0LYqxAp4ncPCpIDP-13">
          <mxGeometry relative="1" as="geometry" />
        </mxCell>
        <mxCell id="h_1FOw3z8PVATZ-N6gUg-2" value="Client" style="rounded=1;whiteSpace=wrap;html=1;" vertex="1" parent="1">
          <mxGeometry x="408" y="460" width="126" height="40" as="geometry" />
        </mxCell>
        <mxCell id="Do9o0LYqxAp4ncPCpIDP-17" style="edgeStyle=orthogonalEdgeStyle;rounded=0;orthogonalLoop=1;jettySize=auto;html=1;entryX=0.5;entryY=0;entryDx=0;entryDy=0;endArrow=none;endFill=0;" edge="1" parent="1" source="VHyXSaee4nn2C6cWrK1--2" target="Do9o0LYqxAp4ncPCpIDP-16">
          <mxGeometry relative="1" as="geometry" />
        </mxCell>
        <mxCell id="Do9o0LYqxAp4ncPCpIDP-26" style="edgeStyle=orthogonalEdgeStyle;rounded=0;orthogonalLoop=1;jettySize=auto;html=1;entryX=0;entryY=0.5;entryDx=0;entryDy=0;endArrow=none;endFill=0;" edge="1" parent="1" source="VHyXSaee4nn2C6cWrK1--2" target="Do9o0LYqxAp4ncPCpIDP-23">
          <mxGeometry relative="1" as="geometry" />
        </mxCell>
        <mxCell id="VHyXSaee4nn2C6cWrK1--2" value="Order" style="rounded=1;whiteSpace=wrap;html=1;" vertex="1" parent="1">
          <mxGeometry x="536" y="550" width="80" height="40" as="geometry" />
        </mxCell>
        <mxCell id="VHyXSaee4nn2C6cWrK1--3" value="Payment" style="rounded=1;whiteSpace=wrap;html=1;" vertex="1" parent="1">
          <mxGeometry x="536" y="700" width="80" height="40" as="geometry" />
        </mxCell>
        <mxCell id="Do9o0LYqxAp4ncPCpIDP-24" style="edgeStyle=orthogonalEdgeStyle;rounded=0;orthogonalLoop=1;jettySize=auto;html=1;entryX=1;entryY=0.5;entryDx=0;entryDy=0;endArrow=none;endFill=0;" edge="1" parent="1" source="Do9o0LYqxAp4ncPCpIDP-1" target="Do9o0LYqxAp4ncPCpIDP-23">
          <mxGeometry relative="1" as="geometry" />
        </mxCell>
        <mxCell id="Do9o0LYqxAp4ncPCpIDP-1" value="Establishment" style="rounded=1;whiteSpace=wrap;html=1;" vertex="1" parent="1">
          <mxGeometry x="760" y="550" width="90" height="40" as="geometry" />
        </mxCell>
        <mxCell id="Do9o0LYqxAp4ncPCpIDP-4" style="edgeStyle=orthogonalEdgeStyle;rounded=0;orthogonalLoop=1;jettySize=auto;html=1;entryX=0.5;entryY=0;entryDx=0;entryDy=0;endArrow=none;endFill=0;" edge="1" parent="1" source="Do9o0LYqxAp4ncPCpIDP-2" target="h_1FOw3z8PVATZ-N6gUg-1">
          <mxGeometry relative="1" as="geometry" />
        </mxCell>
        <mxCell id="Do9o0LYqxAp4ncPCpIDP-2" value="possui" style="rhombus;whiteSpace=wrap;html=1;" vertex="1" parent="1">
          <mxGeometry x="277" y="360" width="60" height="60" as="geometry" />
        </mxCell>
        <mxCell id="Do9o0LYqxAp4ncPCpIDP-7" style="edgeStyle=orthogonalEdgeStyle;rounded=0;orthogonalLoop=1;jettySize=auto;html=1;entryX=0.5;entryY=0;entryDx=0;entryDy=0;endArrow=none;endFill=0;" edge="1" parent="1" source="Do9o0LYqxAp4ncPCpIDP-5" target="h_1FOw3z8PVATZ-N6gUg-2">
          <mxGeometry relative="1" as="geometry" />
        </mxCell>
        <mxCell id="Do9o0LYqxAp4ncPCpIDP-5" value="possui" style="rhombus;whiteSpace=wrap;html=1;" vertex="1" parent="1">
          <mxGeometry x="441" y="360" width="60" height="60" as="geometry" />
        </mxCell>
        <mxCell id="Do9o0LYqxAp4ncPCpIDP-8" value="1" style="text;html=1;align=center;verticalAlign=middle;resizable=0;points=[];autosize=1;strokeColor=none;fillColor=none;" vertex="1" parent="1">
          <mxGeometry x="356" y="305" width="30" height="30" as="geometry" />
        </mxCell>
        <mxCell id="Do9o0LYqxAp4ncPCpIDP-10" value="1" style="text;html=1;align=center;verticalAlign=middle;resizable=0;points=[];autosize=1;strokeColor=none;fillColor=none;" vertex="1" parent="1">
          <mxGeometry x="297" y="436" width="30" height="30" as="geometry" />
        </mxCell>
        <mxCell id="Do9o0LYqxAp4ncPCpIDP-11" value="1" style="text;html=1;align=center;verticalAlign=middle;resizable=0;points=[];autosize=1;strokeColor=none;fillColor=none;" vertex="1" parent="1">
          <mxGeometry x="445" y="436" width="30" height="30" as="geometry" />
        </mxCell>
        <mxCell id="Do9o0LYqxAp4ncPCpIDP-12" value="1" style="text;html=1;align=center;verticalAlign=middle;resizable=0;points=[];autosize=1;strokeColor=none;fillColor=none;" vertex="1" parent="1">
          <mxGeometry x="398" y="305" width="30" height="30" as="geometry" />
        </mxCell>
        <mxCell id="Do9o0LYqxAp4ncPCpIDP-15" style="edgeStyle=orthogonalEdgeStyle;rounded=0;orthogonalLoop=1;jettySize=auto;html=1;entryX=0;entryY=0.5;entryDx=0;entryDy=0;endArrow=none;endFill=0;" edge="1" parent="1" source="Do9o0LYqxAp4ncPCpIDP-13" target="VHyXSaee4nn2C6cWrK1--2">
          <mxGeometry relative="1" as="geometry" />
        </mxCell>
        <mxCell id="Do9o0LYqxAp4ncPCpIDP-13" value="faz" style="rhombus;whiteSpace=wrap;html=1;" vertex="1" parent="1">
          <mxGeometry x="441" y="540" width="60" height="60" as="geometry" />
        </mxCell>
        <mxCell id="Do9o0LYqxAp4ncPCpIDP-18" style="edgeStyle=orthogonalEdgeStyle;rounded=0;orthogonalLoop=1;jettySize=auto;html=1;entryX=0.5;entryY=0;entryDx=0;entryDy=0;endArrow=none;endFill=0;" edge="1" parent="1" source="Do9o0LYqxAp4ncPCpIDP-16" target="VHyXSaee4nn2C6cWrK1--3">
          <mxGeometry relative="1" as="geometry" />
        </mxCell>
        <mxCell id="Do9o0LYqxAp4ncPCpIDP-16" value="possui" style="rhombus;whiteSpace=wrap;html=1;" vertex="1" parent="1">
          <mxGeometry x="546" y="610" width="60" height="60" as="geometry" />
        </mxCell>
        <mxCell id="Do9o0LYqxAp4ncPCpIDP-23" value="possui" style="rhombus;whiteSpace=wrap;html=1;" vertex="1" parent="1">
          <mxGeometry x="660" y="540" width="60" height="60" as="geometry" />
        </mxCell>
        <mxCell id="Do9o0LYqxAp4ncPCpIDP-27" value="1" style="text;html=1;align=center;verticalAlign=middle;resizable=0;points=[];autosize=1;strokeColor=none;fillColor=none;" vertex="1" parent="1">
          <mxGeometry x="463" y="495" width="30" height="30" as="geometry" />
        </mxCell>
        <mxCell id="Do9o0LYqxAp4ncPCpIDP-28" value="N" style="text;html=1;align=center;verticalAlign=middle;resizable=0;points=[];autosize=1;strokeColor=none;fillColor=none;" vertex="1" parent="1">
          <mxGeometry x="513" y="548" width="30" height="30" as="geometry" />
        </mxCell>
        <mxCell id="Do9o0LYqxAp4ncPCpIDP-29" value="1" style="text;html=1;align=center;verticalAlign=middle;resizable=0;points=[];autosize=1;strokeColor=none;fillColor=none;" vertex="1" parent="1">
          <mxGeometry x="735" y="548" width="30" height="30" as="geometry" />
        </mxCell>
        <mxCell id="Do9o0LYqxAp4ncPCpIDP-30" value="N" style="text;html=1;align=center;verticalAlign=middle;resizable=0;points=[];autosize=1;strokeColor=none;fillColor=none;" vertex="1" parent="1">
          <mxGeometry x="607" y="548" width="30" height="30" as="geometry" />
        </mxCell>
        <mxCell id="Do9o0LYqxAp4ncPCpIDP-31" value="1" style="text;html=1;align=center;verticalAlign=middle;resizable=0;points=[];autosize=1;strokeColor=none;fillColor=none;" vertex="1" parent="1">
          <mxGeometry x="566" y="584" width="30" height="30" as="geometry" />
        </mxCell>
        <mxCell id="Do9o0LYqxAp4ncPCpIDP-32" value="1" style="text;html=1;align=center;verticalAlign=middle;resizable=0;points=[];autosize=1;strokeColor=none;fillColor=none;" vertex="1" parent="1">
          <mxGeometry x="565" y="678" width="30" height="30" as="geometry" />
        </mxCell>
        <mxCell id="Do9o0LYqxAp4ncPCpIDP-33" value="DER (Diagrama Entidade-Relacionamento)" style="text;html=1;align=center;verticalAlign=middle;resizable=0;points=[];autosize=1;strokeColor=none;fillColor=none;fontSize=20;fontStyle=1" vertex="1" parent="1">
          <mxGeometry x="333" y="800" width="410" height="40" as="geometry" />
        </mxCell>
        <mxCell id="Do9o0LYqxAp4ncPCpIDP-35" value="CONCEITUAL" style="rounded=1;whiteSpace=wrap;html=1;fillColor=#0050ef;fontColor=#ffffff;strokeColor=#001DBC;fontStyle=1" vertex="1" parent="1">
          <mxGeometry x="472" y="860" width="120" height="60" as="geometry" />
        </mxCell>
        <mxCell id="Do9o0LYqxAp4ncPCpIDP-36" value="LÃGICO" style="rounded=1;whiteSpace=wrap;html=1;fillColor=#0050ef;fontColor=#ffffff;strokeColor=#001DBC;fontStyle=1" vertex="1" parent="1">
          <mxGeometry x="881" y="860" width="120" height="60" as="geometry" />
        </mxCell>
        <mxCell id="Do9o0LYqxAp4ncPCpIDP-37" value="FÃSICO" style="rounded=1;whiteSpace=wrap;html=1;fillColor=#0050ef;fontColor=#ffffff;strokeColor=#001DBC;fontStyle=1" vertex="1" parent="1">
          <mxGeometry x="75" y="860" width="120" height="60" as="geometry" />
        </mxCell>
      </root>
    </mxGraphModel>
  </diagram>
</mxfile>
